name GIL01_fast5Moments.mot
datacolumns 7
datarows 60
range 0.10833336 0.60000002
endheader

                time	          RHipMoment	          LHipMoment	         RKneeMoment	         LKneeMoment	        RAnkleMoment	        LAnkleMoment	
          0.10833336	        390.81399536	       -161.39639282	        720.57000732	          5.06695318	       -225.12423706	        -40.10312271	
          0.11666669	        449.11022949	       -161.43948364	        725.75299072	         10.93731403	       -208.43653870	        -46.80061340	
          0.12500003	        478.73483276	       -186.74209595	        722.11651611	         31.98620796	       -195.41610718	        -49.84735489	
          0.13333336	        481.94723511	       -171.83222961	        708.12786865	         36.62358475	       -181.62460327	        -48.43729019	
          0.14166670	        425.68286133	       -171.68304443	        689.70587158	         44.36569595	       -163.28056335	        -44.91670227	
          0.15000002	        334.92095947	       -139.11242676	        670.65942383	         36.44581604	       -139.25659180	        -38.31257248	
          0.15833336	        222.98658752	       -122.13787842	        649.00897217	         39.49071121	       -110.18091583	        -30.14042473	
          0.16666669	        143.25874329	        -86.26042175	        617.27728271	         40.25854874	        -78.43718719	        -21.99337196	
          0.17500003	         92.63366699	        -52.22209167	        575.57507324	         41.45539093	        -46.06033707	        -14.59488106	
          0.18333337	         80.83493042	        -25.79412842	        526.08422852	         41.11615753	        -14.16349792	         -9.91194630	
          0.19166669	         74.98178101	        -38.12828827	        470.66796875	         52.65162277	         17.54786301	         -7.80630398	
          0.20000002	         79.03604126	        -32.95039749	        413.28671265	         49.94869995	         49.73209763	         -6.77057886	
          0.20833336	         64.35455322	        -48.87603378	        359.81945801	         47.99169922	         82.01643372	         -7.37230110	
          0.21666670	         35.77936554	        -55.79457474	        311.78555298	         39.16678238	        114.79811859	         -8.17486477	
          0.22500002	         21.32281494	        -46.17856979	        266.46829224	         26.47008324	        146.01348877	         -9.18544388	
          0.23333336	         40.29655457	        -27.35794067	        218.50198364	         15.48490906	        178.25517273	         -9.53885174	
          0.24166669	         54.39561081	          3.69620657	        174.93748474	          7.13802576	        210.52700806	         -9.26443481	
          0.25000003	         40.96160889	         12.47254276	        135.86747742	          4.71227503	        243.39297485	         -8.83488369	
          0.25833336	         17.73245621	          9.65642834	        100.88751984	          3.19055533	        274.76004028	         -8.57827377	
          0.26666671	         14.06153107	         18.94733429	         65.89308167	         -2.30858302	        307.21072388	         -8.88538837	
          0.27500004	         10.44987965	         38.06203079	         34.76484299	         -8.97435951	        339.30331421	         -9.17417717	
          0.28333336	        -17.26718712	         47.74253464	          7.64700937	        -15.62610817	        372.89099121	         -9.15776825	
          0.29166669	        -62.23488617	         37.95038986	        -17.17189407	        -17.20347404	        406.39404297	         -9.34390926	
          0.30000001	        -68.06886292	         24.43818665	        -40.83229828	        -16.97548866	        440.95468140	         -9.95187664	
          0.30833334	        -48.29970169	          8.25590801	        -62.23057938	        -10.33701038	        475.37847900	        -11.29652691	
          0.31666669	        -38.53898239	        -10.54489040	        -81.21752930	         -3.61447978	        510.95431519	        -13.09209538	
          0.32500002	        -59.80661011	        -49.11404800	        -92.85875702	          3.98315024	        544.57525635	        -15.02900124	
          0.33333337	        -81.61779022	        -79.74591064	       -103.91666412	          2.27654696	        579.00091553	        -17.52340126	
          0.34166670	        -60.60204315	        -94.60130310	       -134.64515686	         -3.88558125	        612.49218750	        -20.14780426	
          0.35000002	       -103.46420288	        -47.84135818	       -130.31034851	        -30.67517662	        642.70184326	        -22.19532776	
          0.35833335	       -166.40127563	          4.05184841	       -128.01821899	        -58.56322479	        671.35333252	        -23.18052483	
          0.36666670	       -213.48385620	         65.78745270	       -136.78326416	        -90.68944550	        700.14825439	        -22.98742104	
          0.37500003	       -234.10020447	        129.72817993	       -156.51649475	       -120.66630554	        731.59387207	        -21.91061020	
          0.38333336	       -257.80987549	        184.07395935	       -171.35900879	       -142.84680176	        765.63470459	        -19.95402336	
          0.39166668	       -303.56457520	        233.09115601	       -172.11645508	       -161.48510742	        801.03820801	        -17.16737747	
          0.40000004	       -331.92977905	        271.19488525	       -186.53894043	       -180.98786926	        841.75970459	        -14.24487782	
          0.40833336	       -378.99234009	        295.69128418	       -196.27650452	       -200.19398499	        884.04467773	        -11.18716717	
          0.41666669	       -460.96133423	        349.45010376	       -187.36494446	       -232.55374146	        927.21575928	         -7.80083513	
          0.42500001	       -538.41345215	        408.18844604	       -174.61111450	       -267.58914185	        969.91876221	         -3.81357813	
          0.43333337	       -596.60217285	        438.51934814	       -165.35717773	       -293.25283813	       1010.89862061	          0.77739733	
          0.44166669	       -645.23339844	        473.44860840	       -155.61085510	       -318.58657837	       1048.08459473	          4.92473602	
          0.45000002	       -687.67895508	        503.32138062	       -142.31852722	       -335.41705322	       1080.59338379	          8.15985680	
          0.45833334	       -718.20727539	        471.98690796	       -124.86348724	       -320.10134888	       1104.21789551	         10.27770996	
          0.46666670	       -741.39282227	        308.05892944	       -104.09509277	       -241.93898010	       1118.87500000	         10.99261951	
          0.47500002	       -772.90686035	         65.18921661	        -76.94108582	       -123.96368408	       1122.04077148	          9.49729061	
          0.48333335	       -811.95129395	        -53.91695023	        -43.94328308	        -53.94743347	       1114.69848633	          1.33818948	
          0.49166670	       -829.26281738	        403.41741943	        -11.44464493	       -267.36093140	       1094.97009277	        -32.92128754	
          0.50000000	       -811.30181885	       1659.66113281	         17.70575714	       -846.49719238	       1060.92871094	       -129.53816223	
          0.50833333	       -779.02880859	        867.52606201	         45.74618530	       -400.97885132	       1002.90759277	       -166.51843262	
          0.51666665	       -740.95837402	        355.29281616	         65.27371979	        -34.43801880	        924.59783936	       -259.22012329	
          0.52500004	       -707.33526611	        224.75265503	         87.97476196	        118.77439117	        825.88452148	       -284.73193359	
          0.53333336	       -643.84759521	        885.24816895	         98.76186371	       -145.26492310	        704.15997314	       -252.39752197	
          0.54166669	       -540.52679443	        964.34643555	         90.48895264	       -109.14257050	        558.38037109	       -230.40979004	
          0.55000001	       -420.59039307	        720.22241211	         64.96959686	        112.45105743	        395.49719238	       -212.82141113	
          0.55833340	       -339.25665283	        647.42395020	         47.09334946	        234.32864380	        231.47053528	       -177.61216736	
          0.56666672	       -346.82836914	        705.94116211	         71.15949249	        252.56503296	         97.31443024	       -136.26879883	
          0.57500005	       -397.87106323	        629.87255859	        119.60565948	        318.82202148	         11.11470127	       -105.88610840	
          0.58333337	       -397.98498535	        498.28997803	        131.83821106	        398.55853271	        -31.81126404	        -84.33963776	
          0.59166670	       -346.34359741	        421.49783325	        104.75761414	        451.25378418	        -48.05381393	        -74.73039246	
          0.60000002	       -334.12557983	        430.60351563	         95.49851227	        462.82305908	        -58.46780014	        -73.81854248	
